<svg width="35" height="32" viewBox="0 0 35 32" fill="none" xmlns="http://www.w3.org/2000/svg">
<g id="Frame" clip-path="url(#clip0_130_426)">
<path id="Vector" d="M34.5661 28.1212C33.4994 31.4182 29.3297 32.3879 26.9054 29.9636C24.6751 27.8303 20.9903 26.3757 17.7903 26.3757C14.7842 26.3757 10.5176 28.1212 8.09332 30.3515C5.95999 32.2909 2.46908 31.8061 1.01454 29.2848C0.0448398 27.5394 -0.1491 25.3091 1.01454 23.2727L1.59635 22.206C2.17817 21.5273 5.86302 17.1636 13.7176 16.6788C14.2024 18.4242 15.657 19.6848 17.4994 19.6848C19.6327 19.6848 21.4751 17.8424 21.4751 15.6121C21.4751 13.3818 19.7297 11.5394 17.4994 11.5394C15.56 11.5394 14.0085 12.897 13.6206 14.7394H7.51151C6.73575 14.7394 6.2509 13.8667 6.63878 13.1879L12.0691 3.68484C14.4933 -0.6788 20.6024 -0.6788 23.0267 3.68484L34.0812 23.2727C34.9539 24.9212 35.0509 26.6667 34.5661 28.1212Z" fill="#44718D"/>
</g>
<defs>
<clipPath id="clip0_130_426">
<rect width="35" height="32" fill="white"/>
</clipPath>
</defs>
</svg>
